<?xml version="1.0" standalone="no"?><!DOCTYPE svg PUBLIC "-//W3C//DTD SVG 1.1//EN" "http://www.w3.org/Graphics/SVG/1.1/DTD/svg11.dtd">
<svg x="0.0000mm" y="0.0000mm" width="70.9080mm" height="26.4580mm" viewBox="0.0000 0.0000 70.9080 26.4580" version="1.1" xmlns="http://www.w3.org/2000/svg" shape-rendering="crispEdges">
<title>TBarCode - 11.11.0.16177</title>
<desc>BarCode licensed to MEM:TEC-IT Datenverarbeitung GmbH Internal License</desc>
<g fill="rgb(0%,0%,0%)">
</g>
<g fill="rgb(100%,100%,100%)">
<rect x="0.0000" y="0.0000" width="70.9080" height="26.4580" />
</g>
<g fill="rgb(0%,0%,0%)">
</g>
<g fill="rgb(0%,0%,0%)">
<rect x="0.0000" y="0.0000" width="1.0583" height="20.1864" />
<rect x="1.5875" y="0.0000" width="0.5292" height="20.1864" />
<rect x="3.1750" y="0.0000" width="0.5292" height="20.1864" />
<rect x="5.8208" y="0.0000" width="0.5292" height="20.1864" />
<rect x="6.8791" y="0.0000" width="0.5292" height="20.1864" />
<rect x="8.9958" y="0.0000" width="1.0583" height="20.1864" />
<rect x="11.6416" y="0.0000" width="0.5292" height="20.1864" />
<rect x="13.2291" y="0.0000" width="1.5875" height="20.1864" />
<rect x="15.8749" y="0.0000" width="1.0583" height="20.1864" />
<rect x="17.4624" y="0.0000" width="1.0583" height="20.1864" />
<rect x="19.5791" y="0.0000" width="1.5875" height="20.1864" />
<rect x="22.2249" y="0.0000" width="0.5292" height="20.1864" />
<rect x="23.2832" y="0.0000" width="1.0583" height="20.1864" />
<rect x="25.3999" y="0.0000" width="0.5292" height="20.1864" />
<rect x="26.4582" y="0.0000" width="1.5875" height="20.1864" />
<rect x="29.1040" y="0.0000" width="0.5292" height="20.1864" />
<rect x="31.2207" y="0.0000" width="1.0583" height="20.1864" />
<rect x="33.8665" y="0.0000" width="0.5292" height="20.1864" />
<rect x="34.9248" y="0.0000" width="1.0583" height="20.1864" />
<rect x="36.5123" y="0.0000" width="1.5875" height="20.1864" />
<rect x="39.1581" y="0.0000" width="0.5292" height="20.1864" />
<rect x="40.7456" y="0.0000" width="1.0583" height="20.1864" />
<rect x="42.3331" y="0.0000" width="1.5875" height="20.1864" />
<rect x="44.9790" y="0.0000" width="0.5292" height="20.1864" />
<rect x="46.5664" y="0.0000" width="1.5875" height="20.1864" />
<rect x="48.6831" y="0.0000" width="0.5292" height="20.1864" />
<rect x="50.2706" y="0.0000" width="1.0583" height="20.1864" />
<rect x="52.3873" y="0.0000" width="0.5292" height="20.1864" />
<rect x="53.4456" y="0.0000" width="1.0583" height="20.1864" />
<rect x="55.0331" y="0.0000" width="1.5875" height="20.1864" />
<rect x="58.2081" y="0.0000" width="2.1167" height="20.1864" />
<rect x="60.8539" y="0.0000" width="0.5292" height="20.1864" />
<rect x="62.9705" y="0.0000" width="0.5292" height="20.1864" />
<rect x="64.0289" y="0.0000" width="1.0583" height="20.1864" />
<rect x="66.6747" y="0.0000" width="1.5875" height="20.1864" />
<rect x="68.7913" y="0.0000" width="0.5292" height="20.1864" />
<rect x="69.8497" y="0.0000" width="1.0583" height="20.1864" />
</g>
<g fill="rgb(0%,0%,0%)">
<text x="35.4540" y="25.2821" transform="rotate(360 35.4540,25.2821)" text-anchor="middle" font-family="Arial" font-size="5.6444" >A123F558J</text>
</g>
</svg>
